# Blender v2.72 (sub 0) OBJ File: ''
# www.blender.org
mtllib brus1.mtl
v 0.000000 0.450000 0.100000
v -0.019508 0.450000 0.098081
v -0.019508 -0.450000 0.098080
v -0.038269 0.450000 0.092390
v -0.038269 -0.450000 0.092390
v -0.055558 0.450000 0.083148
v -0.055558 -0.450000 0.083148
v -0.070710 0.450000 0.070711
v -0.083148 0.450000 0.055558
v -0.083148 -0.450000 0.055558
v -0.092390 0.450000 0.038269
v -0.092390 -0.450000 0.038268
v -0.098080 0.450000 0.019508
v -0.098080 -0.450000 0.019508
v -0.100000 0.450000 0.000000
v -0.100000 -0.450000 -0.000000
v -0.098080 0.450000 -0.019508
v -0.098080 -0.450000 -0.019508
v -0.092390 0.450000 -0.038268
v -0.092390 -0.450000 -0.038269
v -0.083148 0.450000 -0.055558
v -0.083148 -0.450000 -0.055558
v -0.070710 0.450000 -0.070710
v -0.070710 -0.450000 -0.070711
v -0.055558 0.450000 -0.083148
v -0.055558 -0.450000 -0.083148
v -0.038269 0.450000 -0.092390
v -0.019508 0.450000 -0.098080
v -0.019508 -0.450000 -0.098081
v 0.000000 0.450000 -0.100000
v 0.000000 -0.450000 -0.100000
v 0.019508 0.450000 -0.098080
v 0.019508 -0.450000 -0.098081
v 0.038269 0.450000 -0.092390
v 0.038269 -0.450000 -0.092390
v 0.055558 0.450000 -0.083148
v 0.055558 -0.450000 -0.083148
v 0.070710 0.450000 -0.070710
v 0.070710 -0.450000 -0.070711
v 0.083148 0.450000 -0.055558
v 0.083148 -0.450000 -0.055558
v 0.092390 0.450000 -0.038268
v 0.092390 -0.450000 -0.038269
v 0.098080 0.450000 -0.019508
v 0.098080 -0.450000 -0.019508
v 0.100000 0.450000 0.000000
v 0.100000 -0.450000 -0.000000
v 0.098080 0.450000 0.019508
v 0.098080 -0.450000 0.019508
v 0.092390 0.450000 0.038269
v 0.092390 -0.450000 0.038268
v 0.083148 0.450000 0.055558
v 0.083148 -0.450000 0.055558
v 0.070710 0.450000 0.070711
v 0.070710 -0.450000 0.070710
v 0.055558 0.450000 0.083148
v 0.055558 -0.450000 0.083148
v 0.038269 0.450000 0.092390
v 0.038269 -0.450000 0.092390
v 0.000000 -0.450000 0.100000
v 0.019508 -0.450000 0.098080
v 0.019508 0.450000 0.098081
v -0.070710 -0.450000 0.070710
v -0.038269 -0.450000 -0.092390
vn -0.097900 -0.000000 0.995200
vn -0.290300 -0.000000 0.956900
vn -0.471400 -0.000000 0.881900
vn -0.634500 -0.000000 0.773000
vn -0.773000 -0.000000 0.634500
vn -0.881900 -0.000000 0.471400
vn -0.957000 -0.000000 0.290200
vn -0.995200 -0.000000 0.097900
vn -0.995200 0.000000 -0.097900
vn -0.957000 0.000000 -0.290200
vn -0.881900 0.000000 -0.471400
vn -0.772900 0.000000 -0.634500
vn -0.634500 0.000000 -0.772900
vn -0.471400 0.000000 -0.881900
vn -0.290200 0.000000 -0.957000
vn -0.097900 0.000000 -0.995200
vn 0.097900 0.000000 -0.995200
vn 0.290200 0.000000 -0.957000
vn 0.471400 0.000000 -0.881900
vn 0.634500 0.000000 -0.772900
vn 0.772900 0.000000 -0.634500
vn 0.881900 0.000000 -0.471400
vn 0.957000 0.000000 -0.290200
vn 0.995200 0.000000 -0.097900
vn 0.995200 -0.000000 0.097900
vn 0.957000 -0.000000 0.290200
vn 0.881900 -0.000000 0.471400
vn 0.773000 -0.000000 0.634500
vn 0.634500 -0.000000 0.773000
vn 0.471400 -0.000000 0.881900
vn 0.097900 -0.000000 0.995200
vn 0.290300 -0.000000 0.956900
vn 0.000000 1.000000 0.000000
vn 0.000000 -1.000000 0.000000
vn -0.290200 -0.000000 0.957000
vn -0.634500 -0.000000 0.772900
vn -0.772900 -0.000000 0.634500
vn -0.773000 0.000000 -0.634500
vn -0.634500 0.000000 -0.773000
vn -0.290300 0.000000 -0.956900
vn 0.290300 0.000000 -0.956900
vn 0.634500 0.000000 -0.773000
vn 0.773000 0.000000 -0.634500
vn 0.772900 -0.000000 0.634500
vn 0.634500 -0.000000 0.772900
vn 0.290200 -0.000000 0.957000
g brus1_brus1_Material
usemtl Material
s off
f 1//1 2//1 3//1
f 2//2 4//2 5//2
f 5//3 4//3 6//3
f 7//4 6//4 8//4
f 8//5 9//5 10//5
f 9//6 11//6 12//6
f 11//7 13//7 14//7
f 13//8 15//8 16//8
f 15//9 17//9 18//9
f 17//10 19//10 20//10
f 19//11 21//11 22//11
f 21//12 23//12 24//12
f 24//13 23//13 25//13
f 26//14 25//14 27//14
f 27//15 28//15 29//15
f 28//16 30//16 31//16
f 30//17 32//17 33//17
f 32//18 34//18 35//18
f 34//19 36//19 37//19
f 36//20 38//20 39//20
f 38//21 40//21 41//21
f 40//22 42//22 43//22
f 42//23 44//23 45//23
f 44//24 46//24 47//24
f 46//25 48//25 49//25
f 48//26 50//26 51//26
f 50//27 52//27 53//27
f 52//28 54//28 55//28
f 54//29 56//29 57//29
f 56//30 58//30 59//30
f 60//31 61//31 62//31
f 58//32 62//32 61//32
f 38//33 8//33 54//33
f 24//34 39//34 55//34
f 60//1 1//1 3//1
f 3//35 2//35 5//35
f 7//3 5//3 6//3
f 63//36 7//36 8//36
f 63//37 8//37 10//37
f 10//6 9//6 12//6
f 12//7 11//7 14//7
f 14//8 13//8 16//8
f 16//9 15//9 18//9
f 18//10 17//10 20//10
f 20//11 19//11 22//11
f 22//38 21//38 24//38
f 26//39 24//39 25//39
f 64//14 26//14 27//14
f 64//40 27//40 29//40
f 29//16 28//16 31//16
f 31//17 30//17 33//17
f 33//41 32//41 35//41
f 35//19 34//19 37//19
f 37//42 36//42 39//42
f 39//43 38//43 41//43
f 41//22 40//22 43//22
f 43//23 42//23 45//23
f 45//24 44//24 47//24
f 47//25 46//25 49//25
f 49//26 48//26 51//26
f 51//27 50//27 53//27
f 53//44 52//44 55//44
f 55//45 54//45 57//45
f 57//30 56//30 59//30
f 1//31 60//31 62//31
f 59//46 58//46 61//46
f 16//34 18//34 20//34
f 17//33 15//33 19//33
f 23//33 15//33 8//33
f 25//33 23//33 27//33
f 21//33 19//33 23//33
f 32//33 30//33 34//33
f 38//33 30//33 23//33
f 40//33 38//33 42//33
f 6//33 4//33 8//33
f 48//33 46//33 50//33
f 54//33 46//33 38//33
f 56//33 54//33 58//33
f 36//33 34//33 38//33
f 2//33 1//33 4//33
f 8//33 1//33 54//33
f 9//33 8//33 11//33
f 42//33 38//33 46//33
f 13//33 11//33 15//33
f 50//33 46//33 54//33
f 28//33 27//33 30//33
f 19//33 15//33 23//33
f 44//33 42//33 46//33
f 34//33 30//33 38//33
f 58//33 1//33 62//33
f 11//33 8//33 15//33
f 27//33 23//33 30//33
f 8//33 38//33 23//33
f 54//33 1//33 58//33
f 52//33 50//33 54//33
f 20//34 22//34 24//34
f 4//33 1//33 8//33
f 12//34 14//34 16//34
f 63//34 10//34 12//34
f 5//34 7//34 63//34
f 60//34 3//34 5//34
f 59//34 61//34 60//34
f 55//34 57//34 59//34
f 51//34 53//34 55//34
f 47//34 49//34 51//34
f 43//34 45//34 47//34
f 39//34 41//34 43//34
f 35//34 37//34 39//34
f 31//34 33//34 35//34
f 64//34 29//34 31//34
f 24//34 26//34 64//34
f 16//34 20//34 24//34
f 63//34 12//34 16//34
f 60//34 5//34 63//34
f 55//34 59//34 60//34
f 47//34 51//34 55//34
f 39//34 43//34 47//34
f 31//34 35//34 39//34
f 24//34 64//34 31//34
f 63//34 16//34 24//34
f 55//34 60//34 63//34
f 39//34 47//34 55//34
f 24//34 31//34 39//34
f 55//34 63//34 24//34
